{"title":"Cop Out (2010)(DivX)(Nl subs) RETAIL TBS","uid":6142476,"size":1446276152,"categoryP":"video","categoryS":"movies","magnet":"?xt=urn:btih:05d94b48eb0f55b17b5c96da3f33b67c8056e4b0&amp;dn=Cop+Out+%282010%29%28DivX%29%28Nl+subs%29+RETAIL+TBS&amp;tr=udp%3A%2F%2Ftracker.openbittorrent.com%3A80&amp;tr=udp%3A%2F%2Fopen.demonii.com%3A1337&amp;tr=udp%3A%2F%2Ftracker.coppersurfer.tk%3A6969&amp;tr=udp%3A%2F%2Fexodus.desync.com%3A6969","seeders":1,"leechers":0,"uploader":"Vlinder.","files":-1,"time":1296552964,"description":"Cop Out (2010)(DivX)(Nl subs) RETAIL TBS       \n  \n \nVerenigde Staten\nActie / Komedie\n107 minuten\n\ngeregisseerd door Kevin Smith\nmet Bruce Willis, Tracy Morgan en Seann William Scott\n\nTwee ervaren partners van de New York Police Department moeten het opnemen tegen een meedogenloze crimineel in hun jacht op een zeldzaam honkbalkaartje. Voor veteraan Jimmy (Bruce Willis) is het kaartje zijn enige hoop te kunnen betalen voor de aankomende bruiloft van zijn dochter (Michelle Trachtenberg). Hij wordt bij deze bijzondere missie vergezeld door Paul (Tracy Morgan).\n\nStoryline\n\nAfter a clumsy operation trying to capture a drug dealer, the N.Y.P.D Detectives Jimmy Monroe and Paul Hodges are suspended for one month by their Captain Romans. Jimmy decides to sell his rare baseball card to pay for his daughter's expensive wedding while his jealous partner believes that his wife is cheating on him with their next-door neighbor. When Jimmy sells his card to a memorabilia store, the place is burgled by two small-time thieves and the detective loses his card. They track down the thieves. \n\n\n\nINFO\n\nkwaliteit van de film is gewoon retail niets mis mee dus.\nCategorie : Beeld \nFormaat : DivX \nBron : Retail\nOndertitels : Nederlands (ingebakken)\nThanks : Tjappie078 \n\nGeneral\n\nFormat                           : AVI\nFormat/Info                      : Audio Video Interleave\nFormat profile                   : OpenDML\nFile size                        : 1.35 GiB\nDuration                         : 1h 58mn\nOverall bit rate                 : 1 625 Kbps\nWriting application              : MEncoder Sherpya-MT-SVN-r31027-4.2.5\nWriting library                  : MPlayer\n\nVideo\nID                               : 0\nFormat                           : MPEG-4 Visual\nFormat profile                   : Simple@L1\nFormat settings, BVOP            : No\nFormat settings, QPel            : No\nFormat settings, GMC             : No warppoints\nFormat settings, Matrix          : Default (H.263)\nCodec ID                         : XVID\nCodec ID/Hint                    : XviD\nDuration                         : 1h 58mn\nBit rate                         : 1 272 Kbps\nWidth                            : 720 pixels\nHeight                           : 304 pixels\nDisplay aspect ratio             : 2.35:1\nFrame rate                       : 23.976 fps\nColor space                      : YUV\nChroma subsampling               : 4:2:0\nBit depth                        : 8 bits\nScan type                        : Progressive\nBits/(Pixel*Frame)               : 0.242\nStream size                      : 1.05 GiB (78%)\nWriting library                  : Lavc52.62.0\n\nAudio\nID                               : 1\nFormat                           : AC-3\nFormat/Info                      : Audio Coding 3\nMode extension                   : CM (complete main)\nCodec ID                         : 2000\nDuration                         : 1h 47mn\nBit rate mode                    : Constant\nBit rate                         : 384 Kbps\nChannel(s)                       : 6 channels\nChannel positions                : Front: L C R, Side: L R, LFE\nSampling rate                    : 48.0 KHz\nBit depth                        : 16 bits\nStream size                      : 295 MiB (21%)\nAlignment                        : Split accross interleaves\nInterleave, duration             : 552 ms (13.23 video frames)\nInterleave, preload duration     : 500 ms \n \n  &lt;a href=&quot;\nhttp://www.moviemeter.nl/film/58273&quot; rel=&quot;nofollow&quot; target=&quot;_NEW&quot;&gt;\nhttp://www.moviemeter.nl/film/58273&lt;/a&gt; &lt;a href=&quot;\nhttp://www.imdb.com/title/tt1385867&quot; rel=&quot;nofollow&quot; target=&quot;_NEW&quot;&gt;\nhttp://www.imdb.com/title/tt1385867&lt;/a&gt; \n\n\n","torrent":{"xt":"urn:btih:05d94b48eb0f55b17b5c96da3f33b67c8056e4b0","amp;dn":"Cop+Out+%282010%29%28DivX%29%28Nl+subs%29+RETAIL+TBS","amp;tr":["udp%3A%2F%2Ftracker.openbittorrent.com%3A80","udp%3A%2F%2Fopen.demonii.com%3A1337","udp%3A%2F%2Ftracker.coppersurfer.tk%3A6969","udp%3A%2F%2Fexodus.desync.com%3A6969"],"infoHash":"05d94b48eb0f55b17b5c96da3f33b67c8056e4b0","infoHashBuffer":{"type":"Buffer","data":[5,217,75,72,235,15,85,177,123,92,150,218,63,51,182,124,128,86,228,176]},"announce":[],"urlList":[]}}